<?xml version="1.0" encoding="UTF-8"?>
<svg id="Layer_1" data-name="Layer 1" xmlns="http://www.w3.org/2000/svg" viewBox="0 0 1190.55 306.54">
  <defs>
    <style>
      .cls-1 {
        fill: #fff;
      }
    </style>
  </defs>
  <path class="cls-1" d="m383.9,273.46h-32.32v-64.64h-180.68v-32.32h180.68v-96.96h-116.04c-14.66,0-28.12,3.61-40.4,10.83-12.28,7.22-22.04,16.97-29.25,29.25-7.22,12.28-10.83,25.86-10.83,40.73v113.13h-32.32v-113.13c0-15.51,2.91-30.11,8.73-43.79,5.82-13.68,13.9-25.74,24.24-36.2,10.34-10.45,22.35-18.58,36.04-24.4,13.68-5.82,28.28-8.73,43.8-8.73h148.36v226.25Z"/>
  <path class="cls-1" d="m470.52,273.46h-32.32V47.21h32.32v226.25Z"/>
  <g>
    <path class="cls-1" d="m618.94,117.32c0,4.58-1.12,8.76-3.37,12.55-2.25,3.79-5.25,6.81-8.99,9.05-3.75,2.25-7.95,3.37-12.61,3.37h-75.93v-12.49h75.93c3.5,0,6.45-1.23,8.87-3.69,2.41-2.45,3.62-5.39,3.62-8.8s-1.21-6.35-3.62-8.8c-2.42-2.45-5.37-3.69-8.87-3.69h-50.95c-4.58,0-8.76-1.12-12.55-3.37-3.79-2.25-6.81-5.26-9.05-9.05-2.25-3.79-3.37-7.97-3.37-12.55s1.12-8.76,3.37-12.55c2.25-3.79,5.26-6.81,9.05-9.05,3.79-2.25,7.97-3.37,12.55-3.37h69.69v12.49h-69.69c-3.41,0-6.35,1.23-8.8,3.68-2.46,2.46-3.69,5.39-3.69,8.8s1.23,6.35,3.69,8.8c2.45,2.46,5.39,3.68,8.8,3.68h50.95c4.66,0,8.87,1.12,12.61,3.37s6.74,5.27,8.99,9.05c2.25,3.79,3.37,7.97,3.37,12.55Z"/>
    <path class="cls-1" d="m654.66,142.29h-12.49v-56.2h-18.73v-12.49h18.73v-24.98h12.49v24.98h43.71v12.49h-43.71v56.2Z"/>
    <path class="cls-1" d="m782.41,142.29h-62.44c-4,0-7.66-.98-10.99-2.93-3.33-1.96-5.98-4.58-7.93-7.87-1.96-3.29-2.93-6.97-2.93-11.05s.98-7.76,2.93-11.05c1.96-3.29,4.6-5.91,7.93-7.87,3.33-1.96,6.99-2.94,10.99-2.94h43.71v12.49h-43.71c-2.58,0-4.79.92-6.62,2.75s-2.75,4.04-2.75,6.62.91,4.79,2.75,6.62c1.83,1.83,4.04,2.75,6.62,2.75h49.95v-34.34c0-2.58-.92-4.79-2.75-6.62-1.83-1.83-4.04-2.75-6.62-2.75h-49.95v-12.49h49.95c4.08,0,7.76.98,11.05,2.93,3.29,1.96,5.91,4.58,7.87,7.87,1.96,3.29,2.93,6.97,2.93,11.05v46.83Z"/>
    <path class="cls-1" d="m868.08,86.1h-46.83c-2.58,0-4.79.92-6.62,2.75s-2.75,4.04-2.75,6.62v46.83h-12.49v-46.83c0-4.08.98-7.76,2.93-11.05,1.96-3.29,4.6-5.91,7.93-7.87,3.33-1.95,6.99-2.93,10.99-2.93h46.83v12.49Z"/>
    <path class="cls-1" d="m902.3,142.29h-12.49v-56.2h-18.73v-12.49h18.73v-24.98h12.49v24.98h43.71v12.49h-43.71v56.2Z"/>
    <path class="cls-1" d="m1034.18,95.46c0,4-.98,7.66-2.93,10.99-1.96,3.33-4.58,5.98-7.87,7.93-3.29,1.96-6.97,2.93-11.05,2.93h-47.83c1.75,3.66,4.35,6.66,7.8,8.99,3.45,2.33,7.35,3.5,11.68,3.5h40.84v12.49h-40.84c-4.75,0-9.18-.89-13.3-2.69-4.12-1.79-7.74-4.26-10.87-7.43-3.12-3.16-5.56-6.81-7.31-10.93-1.75-4.12-2.62-8.56-2.62-13.3s.87-9.18,2.62-13.3c1.75-4.12,4.18-7.76,7.31-10.93s6.74-5.64,10.87-7.43c4.12-1.79,8.55-2.69,13.3-2.69h28.35c4.08,0,7.76.98,11.05,2.93,3.29,1.96,5.91,4.58,7.87,7.87,1.96,3.29,2.93,6.97,2.93,11.05Zm-21.85,9.36c2.58,0,4.79-.91,6.62-2.75,1.83-1.83,2.75-4.04,2.75-6.62s-.92-4.79-2.75-6.62c-1.83-1.83-4.04-2.75-6.62-2.75h-28.35c-3.66,0-7.02.83-10.05,2.5-3.04,1.67-5.56,3.91-7.56,6.74-2,2.83-3.25,5.99-3.75,9.49h49.7Z"/>
    <path class="cls-1" d="m1114.6,86.1h-46.83c-2.58,0-4.79.92-6.62,2.75s-2.75,4.04-2.75,6.62v46.83h-12.49v-46.83c0-4.08.98-7.76,2.93-11.05,1.96-3.29,4.6-5.91,7.93-7.87,3.33-1.95,6.99-2.93,10.99-2.93h46.83v12.49Z"/>
  </g>
  <g>
    <path class="cls-1" d="m618.94,217.26c0,5.74-1.4,10.97-4.18,15.67-2.79,4.71-6.56,8.47-11.3,11.3-4.75,2.83-9.99,4.25-15.74,4.25h-50.2v-12.36h50.2c3.5,0,6.66-.85,9.49-2.56,2.83-1.7,5.08-4,6.74-6.87,1.67-2.87,2.5-6.01,2.5-9.43s-.83-6.66-2.5-9.49c-1.67-2.83-3.91-5.08-6.74-6.74-2.83-1.67-5.99-2.5-9.49-2.5h-57.2v74.93h-12.49v-87.42h69.69c5.74,0,10.99,1.4,15.74,4.19,4.74,2.79,8.51,6.56,11.3,11.3,2.79,4.74,4.18,9.99,4.18,15.74Z"/>
    <path class="cls-1" d="m707.36,273.46h-62.44c-4,0-7.66-.98-10.99-2.93-3.33-1.96-5.98-4.58-7.93-7.87-1.96-3.29-2.93-6.97-2.93-11.05s.98-7.76,2.93-11.05c1.96-3.29,4.6-5.91,7.93-7.87,3.33-1.96,6.99-2.94,10.99-2.94h43.71v12.49h-43.71c-2.58,0-4.79.92-6.62,2.75s-2.75,4.04-2.75,6.62.91,4.79,2.75,6.62c1.83,1.83,4.04,2.75,6.62,2.75h49.95v-34.34c0-2.58-.92-4.79-2.75-6.62-1.83-1.83-4.04-2.75-6.62-2.75h-49.95v-12.49h49.95c4.08,0,7.76.98,11.05,2.93,3.29,1.96,5.91,4.58,7.87,7.87,1.96,3.29,2.93,6.97,2.93,11.05v46.83Z"/>
    <path class="cls-1" d="m795.4,273.46h-40.84c-4.75,0-9.18-.89-13.3-2.69-4.12-1.79-7.74-4.26-10.87-7.43-3.12-3.16-5.56-6.81-7.31-10.93-1.75-4.12-2.62-8.56-2.62-13.3s.87-9.18,2.62-13.3c1.75-4.12,4.18-7.76,7.31-10.93s6.74-5.64,10.87-7.43c4.12-1.79,8.55-2.69,13.3-2.69h40.84v12.49h-40.84c-4,0-7.62,1-10.87,3-3.25,2-5.85,4.64-7.8,7.93-1.96,3.29-2.93,6.93-2.93,10.93s.98,7.64,2.93,10.93c1.96,3.29,4.56,5.93,7.8,7.93,3.25,2,6.87,3,10.87,3h40.84v12.49Z"/>
    <path class="cls-1" d="m890.43,273.46h-17.86l-36.46-29.35-14.49,11.86v17.48h-12.49v-93.66h12.49v62.94l45.46-37.97h16.98l-38.84,31.85,45.21,36.84Z"/>
  </g>
</svg>